<svg width="150" height="30" viewBox="0 0 150 30" xmlns="http://www.w3.org/2000/svg"><title>VECTOR</title><path d="M14.355 29L24.745.816h-3.69l-8.38 23.907h-.116L4.18.816H.488L10.878 29h3.477zm31.475-3.164H31.884v-9.688h13.223v-3.125H31.884V3.98H45.83V.816H28.37V29h17.46v-3.164zm16.63 3.633c6.23 0 10.41-3.107 11.7-8.673h-3.555c-1.016 3.437-3.985 5.43-8.125 5.43-5.567 0-9.102-4.415-9.102-11.33 0-6.854 3.574-11.307 9.082-11.307 4.024 0 7.246 2.422 8.145 6.113h3.554c-.9-5.625-5.567-9.355-11.7-9.355-7.715 0-12.695 5.703-12.695 14.55 0 8.926 4.922 14.57 12.695 14.57zM88.173 29V3.98h9.082V.816h-21.68V3.98h9.082V29h3.516zM111.503.348c-7.99 0-12.99 5.625-12.99 14.57s5 14.55 12.99 14.55c7.988 0 12.988-5.605 12.988-14.55s-5-14.57-12.988-14.57zm0 3.242c5.76 0 9.374 4.375 9.374 11.328 0 6.934-3.613 11.31-9.375 11.31-5.76 0-9.375-4.376-9.375-11.31 0-6.953 3.614-11.328 9.375-11.328zm21.278.35h6.78c3.63 0 5.82 2.013 5.82 5.392 0 3.457-2.052 5.41-5.665 5.41h-6.934v-10.8zm0 13.908h6.935L145.75 29h4.12l-6.522-11.7c3.535-1.113 5.664-4.16 5.664-8.085 0-5.078-3.555-8.4-8.985-8.4h-10.76V29h3.514V17.848z" fill="#FFF" fill-rule="evenodd"/></svg>